<?xml version="1.0" encoding="UTF-8" standalone="no"?>
<svg
   xmlns:dc="http://purl.org/dc/elements/1.1/"
   xmlns:cc="http://creativecommons.org/ns#"
   xmlns:rdf="http://www.w3.org/1999/02/22-rdf-syntax-ns#"
   xmlns:svg="http://www.w3.org/2000/svg"
   xmlns="http://www.w3.org/2000/svg"
   xmlns:sodipodi="http://sodipodi.sourceforge.net/DTD/sodipodi-0.dtd"
   xmlns:inkscape="http://www.inkscape.org/namespaces/inkscape"
   width="210mm"
   height="297mm"
   viewBox="0 0 210 297"
   version="1.1"
   id="svg8"
   inkscape:version="1.0.2-2 (e86c870879, 2021-01-15)"
   sodipodi:docname="drawing-2.svg">
  <defs
     id="defs2">
    <filter
       inkscape:collect="always"
       style="color-interpolation-filters:sRGB"
       id="filter851"
       x="-2.62827e-05"
       width="1.0000526"
       y="-1.5124287e-05"
       height="1.0000302">
      <feGaussianBlur
         inkscape:collect="always"
         stdDeviation="0.0014669309"
         id="feGaussianBlur853" />
    </filter>
  </defs>
  <sodipodi:namedview
     id="base"
     pagecolor="#ffffff"
     bordercolor="#666666"
     borderopacity="1.0"
     inkscape:pageopacity="0.0"
     inkscape:pageshadow="2"
     inkscape:zoom="1.4"
     inkscape:cx="366.1058"
     inkscape:cy="512.68431"
     inkscape:document-units="mm"
     inkscape:current-layer="g8"
     inkscape:document-rotation="0"
     showgrid="false"
     inkscape:window-width="1920"
     inkscape:window-height="974"
     inkscape:window-x="-11"
     inkscape:window-y="-11"
     inkscape:window-maximized="1" />
  <metadata
     id="metadata5">
    <rdf:RDF>
      <cc:Work
         rdf:about="">
        <dc:format>image/svg+xml</dc:format>
        <dc:type
           rdf:resource="http://purl.org/dc/dcmitype/StillImage" />
        <dc:title></dc:title>
      </cc:Work>
    </rdf:RDF>
  </metadata>
  <g
     inkscape:label="Layer 1"
     inkscape:groupmode="layer"
     id="layer1">
    <g
       inkscape:label="Layer 1"
       id="layer1-4"
       transform="translate(-13.675818,-10.373306)">
      <path
         style="fill:#ffffff;stroke:#800080;stroke-width:0.994572"
         d="m 177.81828,231.36339 c -0.32712,-7.20223 -1.07262,-32.0323 -1.65674,-55.17792 -0.58411,-23.14562 -1.17124,-42.2035 -1.30476,-42.35086 -0.13346,-0.14736 -24.84188,0.0406 -54.90751,0.41773 l -54.664787,0.68565 -0.610258,37.102 c -0.335656,20.40609 -0.874575,44.74538 -1.197644,54.08728 l -0.587411,16.98528 h 26.778171 c 14.727999,0 40.720879,0.30282 57.761909,0.67292 l 30.98375,0.67291 z"
         id="path839" />
      <g
         inkscape:label="Layer 1"
         id="layer1-7"
         transform="translate(13.078012,35.145133)">
        <path
           id="path837"
           style="fill:#ed9907;fill-opacity:1;stroke:#800080;stroke-width:3.76164;filter:url(#filter851)"
           transform="scale(0.26458333)"
           d="m 399.25977,149.61719 c -0.0964,0.0457 0.28153,0.79006 0.5332,0.95898 0.49252,0.33077 1.01688,0.60492 1.55078,0.86524 -0.64564,-0.63165 -1.29054,-1.26563 -2.01367,-1.79688 -0.0349,-0.0256 -0.0566,-0.0339 -0.0703,-0.0273 z m -15.00196,2.65039 c -0.83388,0.02 -1.66755,0.0646 -2.5,0.125 -1.13204,2.01974 -2.02151,4.87323 -2.67578,8.57617 -1.43869,8.14249 -6.31214,15.70312 -13.86719,21.51367 -8.30305,6.38585 -12.75641,13.80102 -15.5039,25.8125 -2.12011,9.26871 -5.30128,17.96321 -7.06836,19.32227 -1.79247,1.37859 -3.8608,25.63504 -4.67774,54.86523 -1.44303,51.63214 -1.30424,52.86242 9.46289,84.63672 6.00925,17.73357 11.67623,38.19423 12.59375,45.46875 l 1.66797,13.22656 46.6836,0.85938 c 40.28414,0.74082 47.95073,-0.27328 55.9375,-7.38672 5.0905,-4.53386 11.75959,-8.60498 14.81836,-9.04883 4.7137,-0.684 5.89271,-7.07779 7.74218,-41.94336 2.16217,-40.76026 0.27776,-67.21668 -8.10742,-113.77344 -2.38708,-13.25371 -4.75336,-36.06609 -5.25781,-50.69531 -0.64429,-18.68437 -2.86756,-29.73418 -7.47266,-37.13672 -2.01336,-3.2364 -3.43936,-6.61068 -4.44336,-11.125 -4.53971,1.5e-4 -9.07965,-0.002 -13.61914,-0.002 -5.08441,0.0511 -10.1724,0.0828 -15.2539,-0.125 -1.717,-0.0555 -3.5204,0.25112 -5.2168,0.36719 -6.646,0.45476 -9.11473,0.78807 -15.76562,-1.83203 -0.19396,-0.22514 -0.31609,-0.35706 -0.41016,-0.4668 -0.14879,0.009 -0.12827,0.0107 -0.42188,0.0254 -1.19425,0.0761 -6.12714,0.60281 -6.93554,0.11133 -0.54474,-0.33119 -1.03458,-0.73655 -1.50977,-1.16211 -3.55813,-0.0824 -7.12939,0.32313 -10.68555,0.17578 -1.63116,-0.0625 -3.26048,-0.31615 -4.88281,-0.375 -0.87643,-0.0318 -1.75399,-0.0347 -2.63086,-0.0137 z" />
        <g
           transform="matrix(0.03527778,0,0,-0.03527778,18.236689,211.58929)"
           fill="#151515"
           stroke="none"
           id="g8">
          <path
             d="M 0,2500 V 0 H 2500 5000 V 2500 5000 H 2500 0 Z m 2818,2023 c 24,-51 27,-70 26,-158 -1,-175 -63,-290 -252,-470 -346,-328 -368,-357 -366,-510 0,-67 6,-104 23,-146 29,-75 90,-168 153,-235 28,-30 49,-56 47,-58 -2,-3 -36,16 -74,42 -104,68 -223,193 -265,277 -33,67 -49.2045,60.7955 -49.2045,160.7955 0,100 16.2045,122.2045 47.2045,180.2045 48,88 115,159 286,302 324,272 406,393 393,589 -2,46 -3,83 0,83 2,0 16,-26 31,-57 z m 136,-622 c -49,-32 -122,-93 -162,-134 -90,-93 -126,-166 -127,-252 0,-62 14,-98 110,-275 44,-82 47,-142 10,-217 -25,-50 -108,-138 -153,-162 -27,-14 -28,-8 -3,33 11,17 24,50 31,74 16,61 -7,133 -79,252 -74,122 -85,150 -85,224 1,195 162,363 473,492 85,35 83,29 -15,-35 z m 487,-946 c 122,-43 172,-169 115,-290 -41,-89 -158,-179 -308,-240 -161,-64 -168,-57 -31,34 96,64 161,129 196,196 31,59 31,168 -1,213 -30,42 -90,72 -144,72 -40,1 -42,2 -24,15 26,20 141,20 197,0 z m -1277,-13 c 2,-4 -27,-14 -66,-21 -121,-22 -208,-58 -208,-86 0,-18 67,-43 167,-60 257,-45 652,-36 935,21 74,15 78,14 117,-6 23,-11 41,-25 41,-30 0,-19 -216,-70 -385,-91 -131,-17 -542,-17 -665,0 -215,29 -369,75 -397,117 -15,23 -14,26 3,45 10,12 31,27 45,35 39,20 173,53 280,68 118,17 127,18 133,8 z m -140,-373 c -25,-27 -10,-49 48,-71 142,-53 604,-51 809,3 33,8 43,5 92,-23 31,-17 54,-35 52,-38 -2,-4 -35,-16 -72,-28 -278,-86 -740,-89 -1004,-6 -126,40 -158,82 -98,127 26,19 136,55 173,56 19,1 19,1 0,-20 z m 100,-334 c -19,-49 94,-75 318,-75 95,1 196,7 243,15 l 80,14 62,-37 c 35,-20 63,-39 63,-43 0,-12 -108,-49 -185,-65 -38,-8 -133,-17 -210,-21 -163,-7 -325,13 -433,52 -62,22 -112,61 -112,86 0,19 47,53 97,70 62,22 84,23 77,4 z m -284,-83 c 0,-4 -19,-13 -43,-20 -105,-31 -185,-101 -161,-140 48,-77 354,-140 720,-149 470,-12 860,56 965,168 24,26 32,29 44,19 8,-7 15,-27 15,-45 0,-115 -314,-207 -794,-235 -346,-19 -781,22 -1006,96 -89,29 -133,54 -156,89 -47,72 73,153 301,205 91,21 115,23 115,12 z m 1670,-264 c 0,-27 -40,-77 -86,-109 -67,-46 -163,-83 -306,-118 -211,-52 -333,-65 -628,-65 -273,-1 -395,9 -565,45 -122,25 -136,30 -129,41 3,5 12,7 20,4 7,-3 80,-13 161,-22 178,-21 578,-23 758,-5 333,34 591,107 710,200 54,43 65,47 65,29 z"
             id="path2"
             sodipodi:nodetypes="ccccccccccccccccccscccscsccccccccccscccccccccccscccsccccccccccccccccccccccscccsccscccccsccccsscccccccccs" />
          <path
             d="m 2015,801 c -64,-11 -102,-36 -115,-76 -38,-115 78,-178 193,-105 l 47,30 v 80 80 l -42,-1 c -24,-1 -61,-5 -83,-8 z"
             id="path4" />
          <path
             d="m 3245,801 c -64,-11 -102,-36 -115,-76 -38,-116 77,-179 193,-105 l 47,30 v 80 80 l -42,-1 c -24,-1 -61,-5 -83,-8 z"
             id="path6" />
        </g>
      </g>
    </g>
  </g>
</svg>
